<svg width="184" height="180" viewBox="0 0 184 180" fill="none" xmlns="http://www.w3.org/2000/svg">
<path fill-rule="evenodd" clip-rule="evenodd" d="M91.7344 7.83936L92.673 11.63L182.598 167.4L183.464 168.9H181.732H157.529H156.035H131.612H130.335H105.719H104.633H78.8335H77.7474H53.1343H51.8565H27.4351H25.9409H1.73197H0L0.865919 167.4L90.7995 11.6152L91.7344 7.83936ZM79.9197 166.9H103.547L91.7334 24.1268L79.9197 166.9ZM105.554 166.9H129.057L93.7571 24.3303L105.554 166.9ZM89.7088 24.3422L77.9128 166.9H54.4121L89.7088 24.3422ZM28.9293 166.9L87.5311 24.8158L52.3517 166.9H28.9293ZM95.9355 24.8069L131.117 166.9H154.541L95.9355 24.8069ZM85.066 25.5472L3.46393 166.9H26.7658L85.066 25.5472ZM156.704 166.9L98.4201 25.5857L180 166.9H156.704Z" fill="black"/>
</svg>
