<svg width="180" height="183" viewBox="0 0 180 183" fill="none" xmlns="http://www.w3.org/2000/svg">
<path fill-rule="evenodd" clip-rule="evenodd" d="M90.5005 0.288487L90.0005 0L90.0001 0.000237991L89.9996 0L89.4996 0.288487L51.0002 22.4998L50.4996 22.7885L49.9993 23.0771V23.0787L11.6007 45.2888L11.6002 45.289L11.6 45.2892L11.1009 45.5775V45.5779V46.1547V90.5185L10.998 90.5778L10.9993 91.1569L11.0994 136.157L11.1007 136.733L11.5992 137.021L12.7128 137.664L49.9993 159.231V159.232L50.4996 159.521L51.0002 159.81L89.4956 182.019L89.4991 182.021L89.4996 182.021L89.999 182.309L89.9993 182.309L89.9996 182.309L90.4991 182.021L90.4995 182.021L90.5031 182.019L128.999 159.809L129 159.81L129.499 159.521L129.5 159.52L129.514 159.512L129.999 159.232V159.232L168.399 137.021L168.4 137.02L168.419 137.009L168.899 136.732V136.731V136.155V91.7315V91.1547V90.5778V46.1547V45.5779V45.5775L168.4 45.289L168.399 45.2888L168.393 45.285L130.001 23.0787V23.0771L129.501 22.7885L129 22.4998L90.5005 0.288487ZM53.0253 158.641L89.9993 180L126.974 158.641L90.0001 137.31L53.0253 158.641ZM91.0008 89.4224V46.7314L128.001 25.3852V68.0762L91.0008 89.4224ZM91.0008 135.578V92.8869L127.999 114.232V156.923L91.0008 135.578ZM90.0001 44.9998L53.026 23.6686L90.0001 2.30995L126.974 23.6686L90.0001 44.9998ZM51.9993 25.3852L88.9993 46.7314V89.4233L51.9993 68.0771V25.3852ZM13.1009 46.7319V89.3646L49.9993 68.0771V25.4169L13.1009 46.7319ZM13.7174 135.934L13.1009 135.578V92.8883L49.9993 114.231V156.893L13.7174 135.934ZM51.9993 156.924V114.233L88.9993 92.8869V135.578L51.9993 156.924ZM166.899 135.577L129.999 156.893V114.231L166.899 92.8883V135.577ZM50.9993 69.8091L87.9982 91.1547L51.0007 112.499L14.0494 91.1264L50.9993 69.8091ZM128.999 112.5L92.0012 91.1551L128.999 69.8099L165.902 91.1547L128.999 112.5ZM166.899 89.421V46.7319L130.001 25.417V68.0787L166.899 89.421Z" fill="black"/>
</svg>
