<svg width="180" height="182" viewBox="0 0 180 182" fill="none" xmlns="http://www.w3.org/2000/svg">
<path fill-rule="evenodd" clip-rule="evenodd" d="M90.6016 1C90.6016 0.447715 90.1538 0 89.6016 0C89.0493 0 88.6016 0.447715 88.6016 1V85.3323L59.7406 6.05793C59.5517 5.53896 58.9778 5.27142 58.4589 5.46036C57.9399 5.6493 57.6723 6.22316 57.8613 6.74212L86.7259 86.0265L32.4648 21.4566C32.1095 21.0338 31.4787 20.9791 31.0559 21.3344C30.6331 21.6897 30.5783 22.3205 30.9336 22.7433L85.1746 87.2893L12.1994 45.1341C11.7212 44.8578 11.1096 45.0216 10.8333 45.4998C10.5571 45.978 10.7208 46.5897 11.199 46.8659L84.1945 89.0328L1.17357 74.4152C0.629653 74.3194 0.111085 74.6827 0.0153162 75.2266C-0.0804524 75.7705 0.282845 76.2891 0.826762 76.3849L83.8334 91L0.826762 105.615C0.282845 105.711 -0.0804524 106.229 0.0153162 106.773C0.111085 107.317 0.629653 107.681 1.17357 107.585L84.1945 92.9672L11.199 135.134C10.7208 135.41 10.5571 136.022 10.8333 136.5C11.1096 136.978 11.7212 137.142 12.1994 136.866L85.1746 94.7107L30.9336 159.257C30.5783 159.679 30.6331 160.31 31.0559 160.666C31.4787 161.021 32.1095 160.966 32.4648 160.543L86.7259 95.9735L57.8613 175.258C57.6723 175.777 57.9399 176.351 58.4589 176.54C58.9778 176.729 59.5517 176.461 59.7406 175.942L88.6016 96.6677V181C88.6016 181.552 89.0493 182 89.6016 182C90.1538 182 90.6016 181.552 90.6016 181V96.6721L119.461 175.942C119.65 176.461 120.224 176.729 120.743 176.54C121.262 176.351 121.529 175.777 121.34 175.258L92.4781 95.9803L146.733 160.543C147.089 160.966 147.72 161.021 148.142 160.666C148.565 160.31 148.62 159.679 148.265 159.257L94.0236 94.7107L166.999 136.866C167.477 137.142 168.089 136.978 168.365 136.5C168.641 136.022 168.477 135.41 167.999 135.134L95.0027 92.9666L178.027 107.585C178.571 107.681 179.089 107.317 179.185 106.773C179.281 106.229 178.918 105.711 178.374 105.615L95.3671 91L178.374 76.3849C178.918 76.2891 179.281 75.7705 179.185 75.2266C179.089 74.6827 178.571 74.3194 178.027 74.4152L95.0027 89.0334L167.999 46.8659C168.477 46.5897 168.641 45.978 168.365 45.4998C168.089 45.0216 167.477 44.8578 166.999 45.1341L94.0236 87.2893L148.265 22.7433C148.62 22.3205 148.565 21.6897 148.142 21.3344C147.72 20.9791 147.089 21.0338 146.733 21.4566L92.4781 86.0197L121.34 6.74212C121.529 6.22316 121.262 5.6493 120.743 5.46036C120.224 5.27142 119.65 5.53896 119.461 6.05793L90.6016 85.3279V1Z" fill="black"/>
</svg>
